<?xml version="1.0" encoding="UTF-8"?>
<svg width="500px" height="500px" viewBox="0 0 500 500" xmlns="http://www.w3.org/2000/svg" xmlns:xlink="http://www.w3.org/1999/xlink" version="1.1">
 <!-- Generated by Pixelmator Pro 2.0.8 -->
 <path id="Rettangolo-arrotondato" d="M66 50 C57.164 50 50 57.164 50 66 L50 134 C50 142.836 57.164 150 66 150 L284 150 C292.836 150 300 142.836 300 134 L300 66 C300 57.164 292.836 50 284 50 Z" fill="#d6bcfa" fill-opacity="1" stroke="none"/>
 <path id="Rettangolo-arrotondato-copia" d="M141 200 C132.164 200 125 207.164 125 216 L125 284 C125 292.836 132.164 300 141 300 L359 300 C367.836 300 375 292.836 375 284 L375 216 C375 207.164 367.836 200 359 200 Z" fill="#805ad5" fill-opacity="1" stroke="none"/>
 <path id="Rettangolo-arrotondato-copia-1" d="M216 350 C207.164 350 200 357.164 200 366 L200 434 C200 442.836 207.164 450 216 450 L434 450 C442.836 450 450 442.836 450 434 L450 366 C450 357.164 442.836 350 434 350 Z" fill="#44337a" fill-opacity="1" stroke="none"/>
</svg>
